HIERARCHY
ROOT Hips
{
	OFFSET -3.958830 18.904000 13.208200
	CHANNELS 6 Xposition Yposition Zposition Zrotation Yrotation Xrotation 
	JOINT LHipJoint
	{
		OFFSET 0.000000 0.000000 0.000000
		CHANNELS 3 Zrotation Yrotation Xrotation
		JOINT LeftUpLeg
		{
			OFFSET 1.800000 -1.400000 0.085000
			CHANNELS 3 Zrotation Yrotation Xrotation
			JOINT LeftLeg
			{
				OFFSET 2.215000 -6.000000 0.000000
				CHANNELS 3 Zrotation Yrotation Xrotation
				JOINT LeftFoot
				{
					OFFSET 2.500000 -6.900000 0.000000
					CHANNELS 3 Zrotation Yrotation Xrotation
					JOINT LeftToeBase
					{
						OFFSET 0.200000 -0.500000 1.950000
						CHANNELS 3 Zrotation Yrotation Xrotation
						End Site
						{
							OFFSET 0.000000 0.000000 0.000000
						}
					}
				}
			}
		}
	}
	JOINT RHipJoint
	{
		OFFSET 0.000000 0.000000 0.000000
		CHANNELS 3 Zrotation Yrotation Xrotation
		JOINT RightUpLeg
		{
			OFFSET -1.800000 -1.400000 0.085000
			CHANNELS 3 Zrotation Yrotation Xrotation
			JOINT RightLeg
			{
				OFFSET -2.215000 -6.000000 0.000000
				CHANNELS 3 Zrotation Yrotation Xrotation
				JOINT RightFoot
				{
					OFFSET -2.500000 -6.900000 0.000000
					CHANNELS 3 Zrotation Yrotation Xrotation
					JOINT RightToeBase
					{
						OFFSET -0.200000 -0.500000 1.950000
						CHANNELS 3 Zrotation Yrotation Xrotation
						End Site
						{
							OFFSET 0.000000 0.000000 0.000000
						}
					}
				}
			}
		}
	}
	JOINT LowerBack
	{
		OFFSET 0.000000 0.000000 0.000000
		CHANNELS 3 Zrotation Yrotation Xrotation
		JOINT Spine
		{
			OFFSET -0.087000 1.940000 -0.288900
			CHANNELS 3 Zrotation Yrotation Xrotation
			JOINT Spine1
			{
				OFFSET 0.000000 1.950000 0.060000
				CHANNELS 3 Zrotation Yrotation Xrotation
				JOINT Neck
				{
					OFFSET 0.000000 0.000000 0.000000
					CHANNELS 3 Zrotation Yrotation Xrotation
					JOINT Neck1
					{
						OFFSET 0.000000 1.600000 0.340000
						CHANNELS 3 Zrotation Yrotation Xrotation
						JOINT Head
						{
							OFFSET 0.000000 1.667000 -0.240000
							CHANNELS 3 Zrotation Yrotation Xrotation
							End Site
							{
								OFFSET 0.000000 0.000000 0.000000
							}
						}
					}
				}
				JOINT LeftShoulder
				{
					OFFSET 0.000000 0.000000 0.000000
					CHANNELS 3 Zrotation Yrotation Xrotation
					JOINT LeftArm
					{
						OFFSET 2.700000 1.550000 -0.730000
						CHANNELS 3 Zrotation Yrotation Xrotation
						JOINT LeftForeArm
						{
							OFFSET 5.450000 0.000000 0.000000
							CHANNELS 3 Zrotation Yrotation Xrotation
							JOINT LeftHand
							{
								OFFSET 3.450000 0.000000 0.000000
								CHANNELS 3 Zrotation Yrotation Xrotation
								JOINT LeftHandIndex1
								{
									OFFSET 0.750000 0.000000 0.000000
									CHANNELS 3 Zrotation Yrotation Xrotation
									End Site
									{
										OFFSET 0.000000 0.000000 0.000000
									}
								}
							}
						}
					}
				}
				JOINT RightShoulder
				{
					OFFSET 0.000000 0.000000 0.000000
					CHANNELS 3 Zrotation Yrotation Xrotation
					JOINT RightArm
					{
						OFFSET -2.700000 1.550000 -0.730000
						CHANNELS 3 Zrotation Yrotation Xrotation
						JOINT RightForeArm
						{
							OFFSET -5.450000 0.000000 0.000000
							CHANNELS 3 Zrotation Yrotation Xrotation
							JOINT RightHand
							{
								OFFSET -3.450000 0.000000 0.000000
								CHANNELS 3 Zrotation Yrotation Xrotation
								JOINT RightHandIndex1
								{
									OFFSET -0.750000 0.000000 0.000000
									CHANNELS 3 Zrotation Yrotation Xrotation
									End Site
									{
										OFFSET 0.000000 0.000000 0.000000
									}
								}
							}
						}
					}
				}
			}
		}
	}
}
MOTION
Frames: 4
Frame Time: 0.016667
-1.871320 16.938950 -1.749580 -3.360913 13.860833 -1.878465 -15.038191 12.245430 3.357681 5.475725 -2.939583 -26.332876 -2.319795 2.296899 0.261760 -1.319309 2.925237 3.801531 0.815470 0.599410 0.233850 18.525088 -11.262568 2.385318 -0.952392 -0.982672 -0.195583 2.197542 -5.646421 21.935081 -0.489537 -5.298904 2.745881 0.774480 0.753990 0.190340 -4.322571 -0.403272 -7.259340 9.761635 1.957122 12.562191 -8.744767 6.118960 19.899789 0.331868 -3.649344 -6.558780 -7.917412 -2.229464 29.439478 2.432730 -8.514830 -9.899400 -2.415184 -30.525563 -2.491007 -2.976405 -51.459630 -0.170827 42.987430 -29.550476 -14.332994 -4.131209 2.800359 0.209560 0.468270 -0.395770 0.499370 0.678036 32.963690 4.973167 -9.003589 30.919678 -8.063510 -40.688995 34.898680 -13.286314 1.534204 -1.809396 -0.381490 0.671970 -0.019240 -0.069520 
-1.923120 16.940740 -1.757160 -3.610892 15.953945 -2.804416 -15.041650 12.286178 3.324044 4.699649 -2.952918 -26.409112 -1.679660 2.262154 0.824091 -1.372142 2.844038 3.805332 0.827910 0.605670 0.237130 18.525387 -11.226138 2.468375 0.210726 -1.110334 0.308574 2.366643 -5.807947 22.703058 -0.542272 -5.364653 2.699725 0.776930 0.724800 0.186480 -4.369871 -0.487368 -7.316612 10.262131 1.344605 14.032603 -9.394615 6.036269 20.586355 0.489644 -4.053153 -6.688349 -8.725069 -2.798262 29.353765 3.399010 -9.487220 -11.772430 -4.089954 -31.307228 -2.539655 -4.709884 -51.684868 -0.197134 45.236257 -31.360077 -15.961529 -4.101707 2.734859 0.264380 0.420430 -0.369120 0.478410 1.890967 33.523576 5.707047 -9.854060 28.323113 -9.308989 -42.216195 36.977162 -14.212855 1.504595 -1.752268 -0.382480 0.688740 0.006710 -0.078190 
-1.966170 16.969800 -1.753220 -3.843071 17.831319 -3.387617 -15.045270 12.339803 3.331184 4.588485 -3.008545 -27.009808 -2.094074 2.465283 2.524056 -1.384244 2.818070 3.781532 0.830280 0.595590 0.247050 18.511002 -11.220356 2.526140 1.353295 -1.096384 0.106769 1.754895 -5.755006 24.056300 -0.584431 -5.367681 2.684788 0.752140 0.676940 0.187130 -4.400798 -0.545510 -7.379484 10.569712 0.752530 15.255114 -10.160950 5.818208 20.699472 0.922833 -4.373718 -6.953181 -9.457973 -2.984898 29.791244 4.327930 -9.958880 -13.528540 -6.209841 -31.282103 -1.998658 -9.215314 -50.929981 1.181109 49.554810 -35.939541 -19.436460 -4.016397 2.608139 0.330280 0.364240 -0.323460 0.461370 3.131031 33.328533 6.249245 -7.382858 26.420037 -9.956475 -46.721710 41.957112 -17.568530 1.425884 -1.624583 -0.375020 0.684330 0.014970 -0.090800 
-2.002510 17.028020 -1.733060 -3.334315 18.632117 -3.551638 -15.075896 12.476004 3.338347 4.288816 -3.062198 -27.063535 -2.488754 2.731449 4.543343 -1.351605 2.786085 3.763654 0.833860 0.595430 0.280040 18.445924 -11.250331 2.545530 1.463878 -0.827881 -0.522591 1.405729 -5.751338 25.575108 -0.618047 -5.332763 2.684024 0.715890 0.602320 0.161160 -4.301458 -0.669490 -7.421690 9.355077 0.669699 16.479967 -10.281307 5.900827 20.625662 1.254452 -4.858864 -7.416998 -10.416731 -2.769628 30.413165 5.658960 -10.045690 -15.801970 -7.860228 -30.286099 -0.819049 -14.615884 -48.377459 2.232137 55.374281 -43.158585 -25.226254 -3.844604 2.399999 0.399900 0.278960 -0.259260 0.438700 4.260564 33.099165 6.461453 -3.115821 25.750895 -10.503945 -51.868901 48.608365 -22.660290 1.340215 -1.390441 -0.360850 0.682800 -0.001290 -0.103140 
